<svg width="251" height="251" viewBox="0 0 251 251" fill="none" xmlns="http://www.w3.org/2000/svg">
<path d="M30.3661 104.987L83.2946 225.758L94.8354 233.728L108.366 238.019L126.672 242.923L148.162 233.728L162.488 225.758L108.366 104.987L30.3661 104.987Z" fill="url(#paint0_linear_578_732)"/>
<path d="M220.311 145.366L167.383 24.3121L155.842 16.3238L142.312 12.0224L124.005 7.10645L102.516 16.3238L88.1892 24.3121L142.312 145.366L220.311 145.366Z" fill="url(#paint1_linear_578_732)"/>
<path d="M165.318 224.177L247.487 105.864L165.318 104.987L105.92 224.177C101.749 236.371 88.7007 229.258 82.6977 224.177C108.353 271 148.467 243.687 165.318 224.177Z" fill="#6662E2"/>
<path d="M85.6821 25.8532L3.51311 144.167L85.6821 145.044L145.08 25.8532C149.251 13.6598 162.299 20.7726 168.302 25.8532C142.647 -20.9694 102.533 6.34377 85.6821 25.8532Z" fill="#6662E2"/>
<defs>
<linearGradient id="paint0_linear_578_732" x1="44.0545" y1="104.987" x2="106.448" y2="222.165" gradientUnits="userSpaceOnUse">
<stop stop-color="#1E2E60"/>
<stop offset="0.494792" stop-color="#2E6F80"/>
<stop offset="1" stop-color="#369091"/>
</linearGradient>
<linearGradient id="paint1_linear_578_732" x1="206.623" y1="145.366" x2="144.001" y2="28.0347" gradientUnits="userSpaceOnUse">
<stop stop-color="#0C0C0C"/>
<stop offset="0.0001" stop-color="#1E2E60"/>
<stop offset="0.494792" stop-color="#2D6B7E"/>
<stop offset="1" stop-color="#3AA49B"/>
</linearGradient>
</defs>
</svg>
