<svg width="115" height="133" viewBox="0 0 115 133" fill="none" xmlns="http://www.w3.org/2000/svg">
<g filter="url(#filter0_d_157_551)">
<path d="M20.7712 54.6974L41.2886 101.514L45.7623 104.603L51.0074 106.267L58.1036 108.168L66.434 104.603L71.9875 101.514L51.0074 54.6974L20.7712 54.6974Z" fill="url(#paint0_linear_157_551)"/>
</g>
<g filter="url(#filter1_d_157_551)">
<path d="M94.4023 70.3503L73.885 23.4244L69.4113 20.3278L64.1662 18.6604L57.07 16.7548L48.7396 20.3278L43.186 23.4244L64.1662 70.3503H94.4023Z" fill="url(#paint1_linear_157_551)"/>
</g>
<path d="M73.0844 100.901L104.937 55.0375L73.0844 54.6975L50.0592 100.901C48.4425 105.628 43.3843 102.87 41.0573 100.901C51.0022 119.051 66.5525 108.464 73.0844 100.901Z" fill="#6662E2"/>
<path d="M42.2141 24.0218L10.3618 69.8853L42.2141 70.2252L65.2394 24.0218C66.8561 19.2951 71.9143 22.0524 74.2413 24.0218C64.2964 5.87133 48.7461 16.4591 42.2141 24.0218Z" fill="#6662E2"/>
<defs>
<filter id="filter0_d_157_551" x="0.77124" y="38.6974" width="91.2163" height="93.4703" filterUnits="userSpaceOnUse" color-interpolation-filters="sRGB">
<feFlood flood-opacity="0" result="BackgroundImageFix"/>
<feColorMatrix in="SourceAlpha" type="matrix" values="0 0 0 0 0 0 0 0 0 0 0 0 0 0 0 0 0 0 127 0" result="hardAlpha"/>
<feOffset dy="4"/>
<feGaussianBlur stdDeviation="10"/>
<feComposite in2="hardAlpha" operator="out"/>
<feColorMatrix type="matrix" values="0 0 0 0 0 0 0 0 0 0 0 0 0 0 0 0 0 0 0.25 0"/>
<feBlend mode="normal" in2="BackgroundImageFix" result="effect1_dropShadow_157_551"/>
<feBlend mode="normal" in="SourceGraphic" in2="effect1_dropShadow_157_551" result="shape"/>
</filter>
<filter id="filter1_d_157_551" x="23.186" y="0.754761" width="91.2163" height="93.5956" filterUnits="userSpaceOnUse" color-interpolation-filters="sRGB">
<feFlood flood-opacity="0" result="BackgroundImageFix"/>
<feColorMatrix in="SourceAlpha" type="matrix" values="0 0 0 0 0 0 0 0 0 0 0 0 0 0 0 0 0 0 127 0" result="hardAlpha"/>
<feOffset dy="4"/>
<feGaussianBlur stdDeviation="10"/>
<feComposite in2="hardAlpha" operator="out"/>
<feColorMatrix type="matrix" values="0 0 0 0 0 0 0 0 0 0 0 0 0 0 0 0 0 0 0.25 0"/>
<feBlend mode="normal" in2="BackgroundImageFix" result="effect1_dropShadow_157_551"/>
<feBlend mode="normal" in="SourceGraphic" in2="effect1_dropShadow_157_551" result="shape"/>
</filter>
<linearGradient id="paint0_linear_157_551" x1="26.0774" y1="54.6974" x2="50.264" y2="100.121" gradientUnits="userSpaceOnUse">
<stop stop-color="#1E2E60"/>
<stop offset="0.494792" stop-color="#2E6F80"/>
<stop offset="1" stop-color="#369091"/>
</linearGradient>
<linearGradient id="paint1_linear_157_551" x1="89.0962" y1="70.3503" x2="64.8213" y2="24.8675" gradientUnits="userSpaceOnUse">
<stop stop-color="#0C0C0C"/>
<stop offset="0.0001" stop-color="#1E2E60"/>
<stop offset="0.494792" stop-color="#2D6B7E"/>
<stop offset="1" stop-color="#3AA49B"/>
</linearGradient>
</defs>
</svg>
